<svg width="147" height="34" viewBox="0 0 147 34" fill="none" xmlns="http://www.w3.org/2000/svg">
<path d="M138.826 33.168V24.228H142.246C142.862 24.228 143.406 24.336 143.878 24.552C144.358 24.768 144.734 25.088 145.006 25.512C145.278 25.936 145.414 26.46 145.414 27.084C145.414 27.692 145.274 28.212 144.994 28.644C144.714 29.068 144.338 29.388 143.866 29.604L145.906 33.168H143.818L141.61 29.22L142.81 29.928H140.686V33.168H138.826ZM140.686 28.308H142.258C142.522 28.308 142.75 28.256 142.942 28.152C143.134 28.048 143.282 27.904 143.386 27.72C143.498 27.536 143.554 27.324 143.554 27.084C143.554 26.836 143.498 26.62 143.386 26.436C143.282 26.252 143.134 26.108 142.942 26.004C142.75 25.9 142.522 25.848 142.258 25.848H140.686V28.308Z" fill="#0F172A"/>
<path d="M129.527 33.312C128.855 33.312 128.231 33.196 127.655 32.964C127.079 32.732 126.575 32.408 126.143 31.992C125.719 31.568 125.387 31.076 125.147 30.516C124.907 29.956 124.787 29.348 124.787 28.692C124.787 28.036 124.903 27.428 125.135 26.868C125.375 26.308 125.707 25.82 126.131 25.404C126.563 24.988 127.067 24.664 127.643 24.432C128.219 24.2 128.847 24.084 129.527 24.084C130.207 24.084 130.835 24.2 131.411 24.432C131.987 24.664 132.487 24.988 132.911 25.404C133.343 25.82 133.675 26.308 133.907 26.868C134.147 27.428 134.267 28.036 134.267 28.692C134.267 29.348 134.147 29.956 133.907 30.516C133.667 31.076 133.331 31.568 132.899 31.992C132.475 32.408 131.975 32.732 131.399 32.964C130.823 33.196 130.199 33.312 129.527 33.312ZM129.527 31.632C129.935 31.632 130.311 31.56 130.655 31.416C131.007 31.272 131.315 31.072 131.579 30.816C131.843 30.552 132.047 30.24 132.191 29.88C132.335 29.52 132.407 29.124 132.407 28.692C132.407 28.26 132.335 27.868 132.191 27.516C132.047 27.156 131.843 26.844 131.579 26.58C131.315 26.316 131.007 26.116 130.655 25.98C130.311 25.836 129.935 25.764 129.527 25.764C129.119 25.764 128.739 25.836 128.387 25.98C128.043 26.116 127.739 26.316 127.475 26.58C127.211 26.844 127.007 27.156 126.863 27.516C126.719 27.868 126.647 28.26 126.647 28.692C126.647 29.124 126.719 29.52 126.863 29.88C127.007 30.24 127.211 30.552 127.475 30.816C127.739 31.072 128.043 31.272 128.387 31.416C128.739 31.56 129.119 31.632 129.527 31.632Z" fill="#0F172A"/>
<path d="M117.161 33.168V25.848H114.893V24.228H121.253V25.848H119.021V33.168H117.161Z" fill="#0F172A"/>
<path d="M103.462 33.168L106.486 24.228H108.958L111.982 33.168H109.954L109.354 31.344H106.078L105.478 33.168H103.462ZM106.594 29.724H108.838L107.47 25.5H107.974L106.594 29.724Z" fill="#0F172A"/>
<path d="M92.878 33.168V24.228H96.298C96.914 24.228 97.458 24.336 97.93 24.552C98.41 24.768 98.786 25.088 99.058 25.512C99.33 25.936 99.466 26.46 99.466 27.084C99.466 27.692 99.326 28.212 99.046 28.644C98.766 29.068 98.39 29.388 97.918 29.604L99.958 33.168H97.87L95.662 29.22L96.862 29.928H94.738V33.168H92.878ZM94.738 28.308H96.31C96.574 28.308 96.802 28.256 96.994 28.152C97.186 28.048 97.334 27.904 97.438 27.72C97.55 27.536 97.606 27.324 97.606 27.084C97.606 26.836 97.55 26.62 97.438 26.436C97.334 26.252 97.186 26.108 96.994 26.004C96.802 25.9 96.574 25.848 96.31 25.848H94.738V28.308Z" fill="#0F172A"/>
<path d="M82.5716 33.168V24.228H88.5836V25.848H84.4316V27.876H88.3436V29.496H84.4316V31.548H88.5836V33.168H82.5716Z" fill="#0F172A"/>
<path d="M70.4254 33.168V24.228H71.8534L76.6534 30.552L75.8854 30.732V24.228H77.7454V33.168H76.3054L71.5894 26.796L72.2854 26.616V33.168H70.4254Z" fill="#0F172A"/>
<path d="M60.119 33.168V24.228H66.131V25.848H61.979V27.876H65.891V29.496H61.979V31.548H66.131V33.168H60.119Z" fill="#0F172A"/>
<path d="M51.5305 33.312C50.8905 33.312 50.2945 33.196 49.7425 32.964C49.1905 32.732 48.7065 32.408 48.2905 31.992C47.8745 31.576 47.5505 31.088 47.3185 30.528C47.0865 29.968 46.9705 29.356 46.9705 28.692C46.9705 28.028 47.0825 27.416 47.3065 26.856C47.5305 26.288 47.8465 25.8 48.2545 25.392C48.6625 24.976 49.1385 24.656 49.6825 24.432C50.2345 24.2 50.8345 24.084 51.4825 24.084C52.1305 24.084 52.7105 24.192 53.2225 24.408C53.7425 24.624 54.1825 24.912 54.5425 25.272C54.9025 25.632 55.1585 26.032 55.3105 26.472L53.6665 27.264C53.5145 26.832 53.2465 26.476 52.8625 26.196C52.4865 25.908 52.0265 25.764 51.4825 25.764C50.9545 25.764 50.4905 25.888 50.0905 26.136C49.6905 26.384 49.3785 26.728 49.1545 27.168C48.9385 27.6 48.8305 28.108 48.8305 28.692C48.8305 29.276 48.9465 29.788 49.1785 30.228C49.4105 30.668 49.7265 31.012 50.1265 31.26C50.5345 31.508 51.0025 31.632 51.5305 31.632C51.9385 31.632 52.3185 31.556 52.6705 31.404C53.0305 31.244 53.3185 31.016 53.5345 30.72C53.7585 30.424 53.8705 30.068 53.8705 29.652V28.908L54.7225 29.628H51.4825V28.068H55.7305V29.016C55.7305 29.744 55.6105 30.38 55.3705 30.924C55.1305 31.46 54.8065 31.908 54.3985 32.268C53.9985 32.62 53.5465 32.884 53.0425 33.06C52.5465 33.228 52.0425 33.312 51.5305 33.312Z" fill="#0F172A"/>
<path d="M134.668 18.168V0.288H146.692V3.528H138.388V7.584H146.212V10.824H138.388V14.928H146.692V18.168H134.668Z" fill="#0F172A"/>
<path d="M124.625 18.456C123.345 18.456 122.153 18.224 121.049 17.76C119.961 17.296 119.009 16.648 118.193 15.816C117.377 14.984 116.737 14.008 116.273 12.888C115.825 11.768 115.601 10.544 115.601 9.216C115.601 7.888 115.825 6.664 116.273 5.544C116.721 4.408 117.353 3.432 118.169 2.616C118.985 1.784 119.937 1.144 121.025 0.696C122.129 0.232 123.329 0 124.625 0C125.921 0 127.081 0.216 128.105 0.648C129.145 1.08 130.025 1.656 130.745 2.376C131.465 3.096 131.977 3.896 132.281 4.776L128.993 6.36C128.689 5.496 128.153 4.784 127.385 4.224C126.633 3.648 125.713 3.36 124.625 3.36C123.569 3.36 122.641 3.608 121.841 4.104C121.041 4.6 120.417 5.288 119.969 6.168C119.537 7.032 119.321 8.048 119.321 9.216C119.321 10.384 119.537 11.408 119.969 12.288C120.417 13.168 121.041 13.856 121.841 14.352C122.641 14.848 123.569 15.096 124.625 15.096C125.713 15.096 126.633 14.816 127.385 14.256C128.153 13.68 128.689 12.96 128.993 12.096L132.281 13.68C131.977 14.56 131.465 15.36 130.745 16.08C130.025 16.8 129.145 17.376 128.105 17.808C127.081 18.24 125.921 18.456 124.625 18.456Z" fill="#0F172A"/>
<path d="M109.238 18.168V0.288H112.958V18.168H109.238Z" fill="#0F172A"/>
<path d="M97.1201 18.456C95.7761 18.456 94.5281 18.224 93.3761 17.76C92.2241 17.296 91.2161 16.648 90.3521 15.816C89.5041 14.968 88.8401 13.984 88.3601 12.864C87.8801 11.744 87.6401 10.528 87.6401 9.216C87.6401 7.904 87.8721 6.688 88.3361 5.568C88.8161 4.448 89.4801 3.472 90.3281 2.64C91.1921 1.808 92.2001 1.16 93.3521 0.696C94.5041 0.232 95.7601 0 97.1201 0C98.4801 0 99.7361 0.232 100.888 0.696C102.04 1.16 103.04 1.808 103.888 2.64C104.752 3.472 105.416 4.448 105.88 5.568C106.36 6.688 106.6 7.904 106.6 9.216C106.6 10.528 106.36 11.744 105.88 12.864C105.4 13.984 104.728 14.968 103.864 15.816C103.016 16.648 102.016 17.296 100.864 17.76C99.7121 18.224 98.4641 18.456 97.1201 18.456ZM97.1201 15.096C97.9361 15.096 98.6881 14.952 99.3761 14.664C100.08 14.376 100.696 13.976 101.224 13.464C101.752 12.936 102.16 12.312 102.448 11.592C102.736 10.872 102.88 10.08 102.88 9.216C102.88 8.352 102.736 7.568 102.448 6.864C102.16 6.144 101.752 5.52 101.224 4.992C100.696 4.464 100.08 4.064 99.3761 3.792C98.6881 3.504 97.9361 3.36 97.1201 3.36C96.3041 3.36 95.5441 3.504 94.8401 3.792C94.1521 4.064 93.5441 4.464 93.0161 4.992C92.4881 5.52 92.0801 6.144 91.7921 6.864C91.5041 7.568 91.3601 8.352 91.3601 9.216C91.3601 10.08 91.5041 10.872 91.7921 11.592C92.0801 12.312 92.4881 12.936 93.0161 13.464C93.5441 13.976 94.1521 14.376 94.8401 14.664C95.5441 14.952 96.3041 15.096 97.1201 15.096Z" fill="#0F172A"/>
<path d="M76.3509 18.168L70.2309 0.288H74.3109L78.9189 14.64H78.1029L82.7109 0.288H86.7909L80.6709 18.168H76.3509Z" fill="#0F172A"/>
<path d="M53.7384 18.168V0.288H56.5944L66.1944 12.936L64.6584 13.296V0.288H68.3784V18.168H65.4984L56.0664 5.424L57.4584 5.064V18.168H53.7384Z" fill="#0F172A"/>
<path d="M46.8478 18.168V0.288H50.5678V18.168H46.8478Z" fill="#0F172A"/>
<path d="M12.5227 6.55022C13.1206 5.01273 14.601 4 16.2507 4H33.1931C34.9516 4 36.1605 5.76727 35.5232 7.40612L26.1728 31.4498C25.5749 32.9873 24.0945 34 22.4448 34H5.50238C3.74397 34 2.53504 32.2327 3.17236 30.5939L12.5227 6.55022Z" fill="#CBD5E1"/>
<path d="M9.52268 2.55022C10.1206 1.01273 11.601 0 13.2507 0H30.1931C31.9516 0 33.1605 1.76727 32.5232 3.40612L23.1728 27.4498C22.5749 28.9873 21.0945 30 19.4448 30H2.50238C0.743971 30 -0.464964 28.2327 0.172364 26.5939L9.52268 2.55022Z" fill="#0F172A"/>
</svg>
